<svg xmlns="http://www.w3.org/2000/svg" viewBox="0 0 569.62 199.15"><defs><style>.cls-1{isolation:isolate;}.cls-2{opacity:0.8;}.cls-3{fill:#fff;mix-blend-mode:screen;}</style></defs><g class="cls-1"><g id="Layer_2" data-name="Layer 2"><g id="OBJECTS_copy" data-name="OBJECTS copy"><g class="cls-2"><path class="cls-3" d="M530.76.27C517.86-2,512.25,10.92,503.28,4.75s-22.44,1.13-30.86,6.17-16.83-4.48-26.93-1.68S432,17.66,421.93,16a16.28,16.28,0,0,0-13.46,3.37H569.62c-3.34-3.65-9.19-4.32-15.86-3.37C545.91,17.09,543.67,2.51,530.76.27Z"/><path class="cls-3" d="M145.29,195.79c-7.85,1.12-10.1-13.47-23-15.71s-18.51,10.66-27.49,4.49S72.36,185.69,64,190.74,47.12,186.25,37,189.06s-13.46,8.41-23.56,6.73A16.27,16.27,0,0,0,0,199.15H161.15C157.81,195.5,152,194.83,145.29,195.79Z"/></g></g></g></g></svg>