<svg xmlns="http://www.w3.org/2000/svg" viewBox="0 0 398.15 109.73"><defs><style>.cls-1{fill:#3d5ca0;}</style></defs><g id="Layer_2" data-name="Layer 2"><g id="OBJECTS_copy" data-name="OBJECTS copy"><path class="cls-1" d="M7.81,68.45s25.89-3.19,37-3.7S63.58,67.9,69,63.65,83.62,59,92.81,56.55a116.38,116.38,0,0,0,18.28-6.85C131.32,44.77,146,40.09,146,40.09c18.1-10.84,22-14.19,27.11-17.26,18.09-10.84,24.51-14,24.51-14,20.23-4.93,28.14-9.63,34-8.65,18.74,3.14,24.4,4.89,32,8.54s16.79,1.23,28.11,4.72,28.93,22.7,43.78,22,45.09,9.94,45.09,9.94l17.61,19.21-48.24,2.22L237.53,90l-130.08,2L24.58,109.73,0,100.84Z"/></g></g></svg>