<svg xmlns="http://www.w3.org/2000/svg" viewBox="0 0 772.11 162.54">
    <defs>
        <style>
            .cls-1 {
                fill: #21366d;
            }
        </style>
    </defs>
    <g id="Layer_2" data-name="Layer 2">
        <g id="OBJECTS_copy" data-name="OBJECTS copy">
            <path class="cls-1"
                d="M772.11,8.84a35.14,35.14,0,0,1-4.6-3.17c-3.09-2.83-13.38-.94-16.47-1.89s-9.27,1-13.39-1.89S729.42,1,725.3,1,711.92,0,702.65,0s-13.38,4.73-18.53,6.62S668.68,8.51,662.5,8.51s-14.41,7.56-19.56,10.39-7.2,1-20.59,3.78-7.2.95-16.47,6.62S590.44,34,582.2,35.91s-9.26,1-16.47,5.67-7.21,1.89-12.35,6.62-6.18,4.72-19.56,4.72-15.44,5.67-15.44,5.67L506,65.21s-13.38,7.56-20.59,7.56-12.35,7.56-12.35,7.56-7.21,7.56-10.3,9.45-10.29,3.78-14.41,3.78S431.9,99.23,428.81,103s-15.44,6.61-20.59,8.5-14.41.95-19.56,5.67S373.22,120,370.13,120s-18.53.94-18.53.94-10.29,0-13.38-.94-14.42-1-18.53-1.89-23.68-8.51-26.77-9.45-14.41-1.89-20.59-3.78-10.29.94-15.44,0-17.5-2.84-17.5-2.84-11.33-3.78-19.56-7.56c0,0-6.18,1.89-10.3,1.89s-5.15-7.56-23.68-13.23a23.29,23.29,0,0,1-8.23-8.5c-3.09-5.67-10.3-1.89-10.3-1.89s-7.2-1-17.5-9.45c-2.42-2-9.26-2.84-9.26-2.84l-15.44-5.67L112.76,44.42s-9.26-2.84-18.53-6.62L83.94,35s-1-2.84-7.21-9.45-4.12.94-15.44-2.84c-3.87-1.29-2.06-2.83-14.42-3.78-4.23-.32-6.17-2.83-21.61-3.78,0,0-5.15,1-18.53,4.73A41.51,41.51,0,0,1,0,20.56v142H772.11Z" />
        </g>
    </g>
</svg>