<svg xmlns="http://www.w3.org/2000/svg" viewBox="0 0 750 239.65"><defs><style>.cls-1{fill:#628fd4;}</style></defs><g id="Layer_2" data-name="Layer 2"><g id="OBJECTS_copy" data-name="OBJECTS copy"><path class="cls-1" d="M750,15.66c-4.75-1.48-9.28-2.45-11.93-1.92-7.5,1.5-10.5-1.5-21-6s-15,0-27-4.5-7.49-3-13.49-3-18,10.5-27,15-7.5,3-16.5,10.5-18,13.5-18,13.5-21,12-25.5,13.5-15,15-15,15-18,7.5-28.5,15-10.5,12-22.5,13.5-22.5,7.49-31.5,10.49-15,4.5-24,9-15-1.5-28.5,0-15,6-22.5,1.5-12-3-18-3-6-4.5-16.5-9-15-1.5-19.5-1.5-10.5-1.5-21-1.5-6,1.5-16.5,7.5-12,0-22.5,4.5-15,6-22.49,4.5-24-6-28.5-6-6-10.5-19.5-18c-5.41-3-15-3-33-16.5-3.6-2.7-22.5-7.5-22.5-7.5a181.08,181.08,0,0,0-33-12c-4.6-1.15-7.5-3-18-12-4.1-3.52-7.5-6-25.5-6-7.64,0-6-4.5-16.5-12s-7.49-3-13.49-3-13.5-3-13.5-3a181.21,181.21,0,0,0-21-4.5c-10.5-1.5-12-6-21-1.5-4.67,2.33-10.53,1.44-15.11,0V239.65H750Z"/></g></g></svg>