<svg xmlns="http://www.w3.org/2000/svg" viewBox="0 0 750.16 203.75"><defs><style>.cls-1{fill:#c4e4f9;}</style></defs><g id="Layer_2" data-name="Layer 2"><g id="OBJECTS_copy" data-name="OBJECTS copy"><path class="cls-1" d="M.21,29.44C-1.44-6.4,5.93-.25,40,21.81c13.57,8.8,15.15,2.52,16.4,2.52,23.42,0-2.21,6.23,18.86,21.87s23-39.83,82.37-33.94c31.28,3.11,32.94,17.93,48.09,10.92s24.51-7,38.56-7,28.11,3.91,46.85,15.64,23.42,7.82,37.47,19.55,29.41,6.19,44,18.73,31,32.09,47.36,24.27A77.21,77.21,0,0,1,435.76,89a66.71,66.71,0,0,0,33.83-19.19c5.32-5.68,11.19-11.37,15.91-14.52,11.71-7.82,32.79-19.55,42.16-27.37s30.45-11.73,44.5-11.73,18.74,3.91,35.13,0S633.16-6.95,644.82,2.66s60.84,33.06,60.84,33.06l11.83,6.06c20.22,10.36,32.67,29.45,32.67,50.09v43.69c0,31.44-28.42,57.14-64,57.9L206,203.74a77,77,0,0,1-7.74-.24c-22.63-1.88-137.37-11.41-143.7-11.41-4.51,0-23.49-20.94-36.51-35.94a53.93,53.93,0,0,1-13.5-32.89Z"/></g></g></svg>