<svg xmlns="http://www.w3.org/2000/svg" viewBox="0 0 750 199.03"><defs><style>.cls-1{fill:#4e75ba;}</style></defs><g id="Layer_2" data-name="Layer 2"><g id="OBJECTS_copy" data-name="OBJECTS copy"><path class="cls-1" d="M738.07,6.12c-9-3-19.5-6-25.5-6s-19.5-1.5-33,6-15,9-24,16.5-19.5,13.5-24,15-21,4.5-40.5,7.5-15,7.5-33,15-25.5,7.5-31.5,7.5-46.49,18-57,22.5-13.5,7.5-21,10.5-24,4.5-30,6-34.5,4.5-42,6-21,9-30,10.5-19.5-6-34.5-7.5-13.5-3-28.49-7.5-13.5-6-19.5-7.5-13.5-6-30-9-31.5-6-48-12-31.5-13.5-45-18-31.5-12-45-15-22.49-13.5-31.49-16.5-24-6-30-4.5-10.5-4.5-24-1.5A53.37,53.37,0,0,1,0,25.44V199H750V10.21C745.27,8.57,740.87,7.06,738.07,6.12Z"/></g></g></svg>