<svg xmlns="http://www.w3.org/2000/svg" viewBox="0 0 1033.68 117.34"><defs><style>.cls-1{isolation:isolate;}.cls-2{fill:#fff;opacity:0.8;mix-blend-mode:screen;}</style></defs><g class="cls-1"><g id="Layer_2" data-name="Layer 2"><g id="light-mode"><path class="cls-2" d="M996.81,108.86c-18.26,2.83-23.48-33.95-53.48-39.61s-43.05,26.88-63.92,11.32-52.17,2.83-71.74,15.56-39.13-11.32-62.61-4.25-31.3,21.22-54.78,17c-15.66-2.83-26.09,3.77-31.3,8.48h374.7C1025.92,108.13,1012.31,106.46,996.81,108.86Z"/><path class="cls-2" d="M298.88.59c-31.53-5-45.24,23.67-67.18,10s-54.84,2.49-75.4,13.7-41.14-10-65.82-3.74-32.9,18.69-57.58,15C16.44,33,5.48,38.8,0,43H393.85c-8.15-8.11-22.46-9.59-38.75-7.48C335.9,38,330.42,5.57,298.88.59Z"/></g></g></g></svg>