<svg xmlns="http://www.w3.org/2000/svg" viewBox="0 0 756 166.86"><defs><style>.cls-1{fill:#4f3e48;}</style></defs><g id="Layer_2" data-name="Layer 2"><g id="light-mode"><path class="cls-1" d="M756,9.07a34.5,34.5,0,0,1-4.5-3.25c-3-2.91-13.11-1-16.13-1.94s-9.07,1-13.11-1.94-8.06-1-12.09-1S697.06,0,688,0s-13.1,4.85-18.14,6.79-15.12,1.94-21.17,1.94-14.11,7.76-19.15,10.67-7.06,1-20.16,3.88-7.06,1-16.13,6.79-15.12,4.85-23.18,6.79-9.08,1-16.13,5.82-7.06,1.94-12.1,6.8-6.05,4.85-19.15,4.85-15.12,5.82-15.12,5.82l-12.09,6.79s-13.11,7.76-20.16,7.76-12.1,7.76-12.1,7.76-7.06,7.76-10.08,9.7S443.05,96,439,96s-16.13,5.82-19.15,9.7-15.12,6.79-20.16,8.73-14.12,1-19.16,5.82-15.12,2.91-18.14,2.91-18.14,1-18.14,1-10.08,0-13.11-1-14.11-1-18.14-1.94-23.19-8.73-26.21-9.7-14.11-1.94-20.16-3.88-10.08,1-15.12,0-17.14-2.91-17.14-2.91-11.08-3.88-19.15-7.76c0,0-6.05,1.94-10.08,1.94s-5-7.76-23.18-13.58a23.39,23.39,0,0,1-8.07-8.73c-3-5.82-10.08-1.94-10.08-1.94s-7.05-1-17.13-9.7c-2.37-2.06-9.07-2.91-9.07-2.91l-15.12-5.82-12.1-10.68s-9.07-2.91-18.14-6.79L82.19,35.89s-1-2.91-7.06-9.7-4,1-15.12-2.91C56.22,22,58,20.37,45.9,19.4c-4.14-.33-6-2.91-21.17-3.88,0,0-5,1-18.14,4.85A37.45,37.45,0,0,1,0,21.1V166.86H756Z"/></g></g></svg>